<svg width="2100" height="517" viewBox="0 0 2100 517" fill="none" xmlns="http://www.w3.org/2000/svg">
<path d="M193.5 170V239.3C187.5 235.1 180.9 231.5 173.7 228.5C166.5 225.2 159 223.55 151.2 223.55C135.6 223.55 122.25 228.95 111.15 239.75C100.35 250.55 94.95 263.9 94.95 279.8C94.95 296.3 100.35 309.95 111.15 320.75C121.95 331.25 135.75 336.5 152.55 336.5C154.05 336.5 155.55 336.5 157.05 336.5C158.85 336.2 160.5 335.9 162 335.6C167.7 334.7 173.25 333.05 178.65 330.65C184.35 327.95 189.3 324.65 193.5 320.75V389.6C184.5 394.1 175.05 397.4 165.15 399.5C155.55 401.6 145.8 402.65 135.9 402.65C101.7 402.65 72.15 391.4 47.25 368.9C22.65 346.1 10.35 317.3 10.35 282.5C10.35 245.3 22.8 215.15 47.7 192.05C72.6 168.65 103.2 156.95 139.5 156.95C149.1 156.95 158.4 158.15 167.4 160.55C176.7 162.65 185.4 165.95 193.5 170.45V170ZM496.979 164.15V395H415.079V369.35H414.179C407.579 380.15 398.579 388.25 387.179 393.65C375.779 398.75 363.929 401.6 351.629 402.2C350.429 402.5 349.229 402.65 348.029 402.65C346.829 402.65 345.629 402.65 344.429 402.65C310.229 402.65 282.179 390.5 260.279 366.2C238.679 341.6 227.879 312.8 227.879 279.8C227.879 246.8 238.529 218.15 259.829 193.85C281.429 169.25 309.329 156.95 343.529 156.95C345.029 156.95 346.529 156.95 348.029 156.95C349.529 156.95 351.029 157.1 352.529 157.4C364.229 158.3 375.629 161.3 386.729 166.4C398.129 171.2 407.579 178.1 415.079 187.1V164.15H496.979ZM365.129 227.6C348.629 227.9 335.729 233.3 326.429 243.8C317.129 254 312.479 266.15 312.479 280.25C312.479 294.95 317.129 307.25 326.429 317.15C335.729 327.05 348.629 332 365.129 332C381.929 332 394.829 327.05 403.829 317.15C413.129 307.25 417.779 294.95 417.779 280.25C417.779 266.15 413.129 254 403.829 243.8C394.829 233.3 381.929 228.05 365.129 228.05V227.6ZM633.168 21.5V395H551.268V21.5H633.168ZM939.509 164.15V395H857.609V369.35H856.709C850.109 380.15 841.109 388.25 829.709 393.65C818.309 398.75 806.459 401.6 794.159 402.2C792.959 402.5 791.759 402.65 790.559 402.65C789.359 402.65 788.159 402.65 786.959 402.65C752.759 402.65 724.709 390.5 702.809 366.2C681.209 341.6 670.409 312.8 670.409 279.8C670.409 246.8 681.059 218.15 702.359 193.85C723.959 169.25 751.859 156.95 786.059 156.95C787.559 156.95 789.059 156.95 790.559 156.95C792.059 156.95 793.559 157.1 795.059 157.4C806.759 158.3 818.159 161.3 829.259 166.4C840.659 171.2 850.109 178.1 857.609 187.1V164.15H939.509ZM807.659 227.6C791.159 227.9 778.259 233.3 768.959 243.8C759.659 254 755.009 266.15 755.009 280.25C755.009 294.95 759.659 307.25 768.959 317.15C778.259 327.05 791.159 332 807.659 332C824.459 332 837.359 327.05 846.359 317.15C855.659 307.25 860.309 294.95 860.309 280.25C860.309 266.15 855.659 254 846.359 243.8C837.359 233.3 824.459 228.05 807.659 228.05V227.6ZM991.097 395V21.5H1073V186.65C1081.1 177.65 1090.85 170.75 1102.25 165.95C1113.95 160.85 1125.8 157.85 1137.8 156.95C1139 156.95 1140.05 156.95 1140.95 156.95C1142.15 156.95 1143.35 156.95 1144.55 156.95C1178.75 156.95 1206.5 169.25 1227.8 193.85C1249.4 218.15 1260.2 246.8 1260.2 279.8C1260.2 313.1 1249.4 341.9 1227.8 366.2C1206.2 390.5 1178.15 402.65 1143.65 402.65C1142.75 402.65 1141.85 402.65 1140.95 402.65C1140.05 402.65 1139.15 402.65 1138.25 402.65C1125.65 402.05 1113.5 399.2 1101.8 394.1C1090.1 388.7 1080.8 380.6 1073.9 369.8L1073 369.35V395H991.097ZM1122.95 227.6C1106.45 227.9 1093.55 233.3 1084.25 243.8C1074.95 254 1070.3 266.15 1070.3 280.25C1070.3 294.95 1074.95 307.25 1084.25 317.15C1093.55 327.05 1106.45 332 1122.95 332C1139.75 332 1152.65 327.05 1161.65 317.15C1170.95 307.25 1175.6 294.95 1175.6 280.25C1175.6 266.15 1170.95 254 1161.65 243.8C1152.65 233.3 1139.75 228.05 1122.95 228.05V227.6Z" fill="black"/>
<circle cx="1424.5" cy="279.5" r="127.5" fill="#FFCC00"/>
<path d="M1768.5 170V239.3C1762.5 235.1 1755.9 231.5 1748.7 228.5C1741.5 225.2 1734 223.55 1726.2 223.55C1710.6 223.55 1697.25 228.95 1686.15 239.75C1675.35 250.55 1669.95 263.9 1669.95 279.8C1669.95 296.3 1675.35 309.95 1686.15 320.75C1696.95 331.25 1710.75 336.5 1727.55 336.5C1729.05 336.5 1730.55 336.5 1732.05 336.5C1733.85 336.2 1735.5 335.9 1737 335.6C1742.7 334.7 1748.25 333.05 1753.65 330.65C1759.35 327.95 1764.3 324.65 1768.5 320.75V389.6C1759.5 394.1 1750.05 397.4 1740.15 399.5C1730.55 401.6 1720.8 402.65 1710.9 402.65C1676.7 402.65 1647.15 391.4 1622.25 368.9C1597.65 346.1 1585.35 317.3 1585.35 282.5C1585.35 245.3 1597.8 215.15 1622.7 192.05C1647.6 168.65 1678.2 156.95 1714.5 156.95C1724.1 156.95 1733.4 158.15 1742.4 160.55C1751.7 162.65 1760.4 165.95 1768.5 170.45V170ZM2071.98 164.15V395H1990.08V369.35H1989.18C1982.58 380.15 1973.58 388.25 1962.18 393.65C1950.78 398.75 1938.93 401.6 1926.63 402.2C1925.43 402.5 1924.23 402.65 1923.03 402.65C1921.83 402.65 1920.63 402.65 1919.43 402.65C1885.23 402.65 1857.18 390.5 1835.28 366.2C1813.68 341.6 1802.88 312.8 1802.88 279.8C1802.88 246.8 1813.53 218.15 1834.83 193.85C1856.43 169.25 1884.33 156.95 1918.53 156.95C1920.03 156.95 1921.53 156.95 1923.03 156.95C1924.53 156.95 1926.03 157.1 1927.53 157.4C1939.23 158.3 1950.63 161.3 1961.73 166.4C1973.13 171.2 1982.58 178.1 1990.08 187.1V164.15H2071.98ZM1940.13 227.6C1923.63 227.9 1910.73 233.3 1901.43 243.8C1892.13 254 1887.48 266.15 1887.48 280.25C1887.48 294.95 1892.13 307.25 1901.43 317.15C1910.73 327.05 1923.63 332 1940.13 332C1956.93 332 1969.83 327.05 1978.83 317.15C1988.13 307.25 1992.78 294.95 1992.78 280.25C1992.78 266.15 1988.13 254 1978.83 243.8C1969.83 233.3 1956.93 228.05 1940.13 228.05V227.6Z" fill="black"/>
</svg>
